<?xml version="1.0" encoding="utf-8"?>
<!-- Generator: Adobe Illustrator 28.2.0, SVG Export Plug-In . SVG Version: 6.00 Build 0)  -->
<svg version="1.1" id="Layer_1" xmlns="http://www.w3.org/2000/svg" xmlns:xlink="http://www.w3.org/1999/xlink" x="0px" y="0px"
	 viewBox="0 0 324.5 324" style="enable-background:new 0 0 324.5 324;" xml:space="preserve">
<style type="text/css">
	.st0{fill:#FFFFFF;}
</style>
<g id="XMLID_68965_">
	<path id="XMLID_68972_" class="st0" d="M294.7,72.8c-0.2-0.5-0.5-1-0.9-1.4l-0.3-0.3c-2-2.2-5-3-7.9-2.3c-2.9,0.7-5.2,3-5.9,5.9
		c-0.7,2.5-2,4.8-3.9,6.6c-3.8,3.5-9.2,4.7-14.1,3c-5.3-1.8-8.9-6.6-9.8-13.1c0-0.3,0-0.7,0-1c1.5-6.9,5.9-11.6,11.9-12.7
		c3-0.5,5.4-2.6,6.3-5.5c0.9-2.8,0.2-5.8-1.8-8l-19.7-21.1c-1.1-1.2-2.5-2-4.1-2.4c-0.4-0.1-0.8-0.1-1.3-0.1c-2,0-3.8,0.8-5.3,2.1
		l-18.8,17.1c-1.1-2.6-2.6-4.9-4.5-6.9c-8.8-9.4-23.8-10.1-33.5-1.4c-9.5,9-10,23.7-1.2,33.4c1.9,2.1,4.1,3.8,6.5,5.1l-18.6,17.3
		c-0.5,0.4-0.7,0.8-0.9,1.1c-0.9,1.2-1.5,2.6-1.6,4.1c0,0.4,0,0.8,0,1.3c0.2,1.6,0.9,3.1,2,4.3l19.5,21.4c2,2.2,5,3.1,7.8,2.4
		c2.9-0.7,5.2-2.9,6-5.9c1.6-5.9,6.5-9.8,13.6-10.8c0.3,0,0.7,0,1,0c6.4,1.5,10.9,5.5,12.3,10.9c1.3,5-0.3,10.3-4.1,13.8
		c-1.9,1.8-4.3,2.9-6.9,3.4c-3,0.5-5.4,2.6-6.4,5.4c-1,2.8-0.3,5.9,1.7,8l0.3,0.3c0.4,0.4,0.8,0.8,1.3,1l18.6,20
		c1.3,1.4,3.1,2.3,5,2.5c0.2,0,0.4,0,0.6,0c0.2,0,0.5,0,0.7,0c0.9-0.1,1.8-0.4,2.6-0.9c0.4-0.2,1-0.6,1.7-1.2l20.4-18.6
		c0.3-0.2,0.5-0.5,0.7-0.8c1.5-2,1.9-4.7,1.2-7.1c-0.7-2.4-2.5-4.3-4.8-5.2c-2-0.8-3.8-2-5.3-3.6c-2.6-2.8-3.8-6.5-3.6-10.3
		c0.3-3.8,2-7.3,5-9.7c0.1-0.1,0.2-0.2,0.4-0.3c2.7-2.7,6.3-4.1,10.1-4.2c3.8,0.1,7.4,1.6,10,4.4c1.5,1.6,2.6,3.5,3.2,5.6
		c0.7,2.4,2.4,4.3,4.8,5.2c2.4,0.9,5.1,0.7,7.2-0.6c0.3-0.2,0.6-0.4,0.8-0.6l20.2-18.8c1.2-1.1,2-2.5,2.4-4.1
		c0.1-0.4,0.2-0.9,0.1-1.3c-0.1-1.9-0.8-3.8-2.1-5.2L294.7,72.8z M288.3,112.6c-1.1-2.4-2.5-4.6-4.4-6.6c-4.5-4.8-10.6-7.5-17.2-7.6
		c-6.6-0.1-12.6,2.4-17.2,7c-5,4.2-7.9,10.1-8.4,16.6c-0.5,6.6,1.7,12.9,6.2,17.7c1.8,2,3.9,3.6,6.2,4.9l-15.9,14.5l-16-17.2
		c3.1-1,6-2.7,8.4-5c6.6-6,9.3-15.1,7-23.7c-2.3-9-9.7-15.8-19.7-18.1c-1.5-0.4-3.1-0.4-4.7-0.2c-9.8,1.4-17.4,6.9-20.8,14.9
		l-15.5-17l18.4-17.2c0.8-0.7,1.4-1.6,1.9-2.6c1.1-2,1.3-4.4,0.6-6.5c-0.8-2.3-2.5-4.1-4.7-4.9c-2.1-0.8-3.8-2-5.3-3.6
		c-5.1-5.6-4.8-14.1,0.5-19.3c5.6-5,14.3-4.6,19.4,0.9c1.5,1.6,2.6,3.5,3.2,5.6c0.7,2.3,2.3,4.2,4.5,5.1c2.1,0.9,4.5,0.9,6.6-0.1
		c1-0.4,1.9-0.9,2.7-1.6l18.7-17l15.7,16.9c-8.3,2.8-14.4,9.8-16.6,19.5c-0.3,1.5-0.4,3.1-0.2,4.7c1.5,10.2,7.7,18.1,16.5,21.1
		c8.4,2.9,17.7,1,24.2-5.1c2.4-2.3,4.3-5,5.6-8L304,98L288.3,112.6z"/>
	<path id="XMLID_68966_" class="st0" d="M41.6,295.5c0,4.5,3.7,8.1,8.1,8.1c0,0,0,0,0,0l93.5-0.6c0.2,0,0.5-0.1,0.7-0.1
		c1,0.4,2.1,0.6,3.2,0.6l29-0.2c0.3,0,0.7,0,1-0.1c2.5-0.5,4.6-2.2,5.7-4.5c1.1-2.3,1-4.9-0.1-7.1c-1.5-2.9-3.2-8.8,1.8-16.1
		c0.2-0.3,0.4-0.5,0.7-0.7c3.2-2.2,6.6-3.4,9.9-3.4c7.6,0,13.9,6.2,13.9,13.8c0,2.2-0.5,4.3-1.5,6.2c-1.1,2.2-1.1,4.8,0,7.1
		c1.1,2.3,3.3,3.9,5.7,4.4c0.3,0.1,0.6,0.1,1,0.1l27.5-0.2c2.2,0,4.2-0.9,5.7-2.4c1.5-1.6,2.4-3.6,2.3-5.8l-0.2-28.8
		c0-4.5-3.6-8-8.1-8c-1.6,0-3.1,0.5-4.5,1.3c-2.2,1.4-4.8,2.2-7.5,2.2c-5.2,0-9.9-2.8-12.3-7.4c-2.6-4.9-2-10.9,1.7-16.3
		c0.2-0.3,0.4-0.5,0.7-0.7c3.2-2.3,6.6-3.4,9.9-3.4c2.6,0,5.2,0.7,7.4,2.1c3.2,2,7.6,1.5,10.2-1.1c1.5-1.5,2.3-3.5,2.3-5.7
		l-0.2-28.9c0-4.4-3.7-8.1-8.2-8.1l-24.7,0.1c0.9-2.5,1.3-5.2,1.3-7.9c-0.1-13.1-10.8-23.8-23.9-23.8c-5.3,0-10.6,1.8-15.5,5.1
		c0.7-1,1.4-2.1,2-3.2c4.3-8.3,3.4-18.2-2.5-26.6c-0.9-1.3-2-2.4-3.3-3.3c-7.4-5-16-6.3-23.5-3.7l-0.1-24.7c0-4.5-3.7-8.1-8.2-8.1
		L118,96.2c2.7-7.7,1.4-16.1-3.9-23.6c-0.9-1.2-2-2.4-3.3-3.3c-4.8-3.3-10.1-5-15.4-5c0,0,0,0,0,0c-6.4,0-12.5,2.5-17,7.1
		c-4.5,4.6-7,10.6-7,17c0,2.8,0.5,5.5,1.5,8.1l-24.8,0.1c-2.2,0-4.2,0.9-5.7,2.4c-1.5,1.5-2.4,3.6-2.3,5.8l0.2,29c0,0.3,0,0.7,0.1,1
		c0.8,3.7,4.1,6.5,7.9,6.5c1.3,0,2.5-0.3,3.7-0.9c4.9-2.5,10.7-1.9,16.1,1.8c0.3,0.2,0.5,0.4,0.7,0.7c3.7,5.4,4.4,11.3,1.8,16.3
		c-2.4,4.6-7.1,7.5-12.4,7.5c-2.2,0-4.2-0.5-6.2-1.5c-1.1-0.5-2.3-0.8-3.5-0.8c-3.8,0-7.2,2.8-7.9,6.6c-0.1,0.3-0.1,0.7-0.1,1
		l0.2,27.6c0,0.8,0.2,1.5,0.5,2.1c0,0.1,0,0.2,0,0.4l0.1,23.7c-7.7-2.7-16.1-1.4-23.6,3.9c-1.3,0.9-2.4,2-3.3,3.3
		c-5.8,8.5-6.6,18.5-2.2,26.7c4.2,7.9,12.4,12.7,21.3,12.7c2.8,0,5.5-0.5,8.1-1.5L41.6,295.5z M181.1,198.7c1.5-2.4,1.6-5.4,0.3-7.9
		c-1.5-2.9-3.2-8.8,1.8-16.1c0.2-0.3,0.5-0.5,0.7-0.7c3.2-2.2,6.5-3.4,9.9-3.4c7.6,0,13.8,6.2,13.9,13.8c0,2.2-0.5,4.3-1.5,6.2
		c-1.2,2.5-1.1,5.4,0.4,7.8c1.5,2.4,4.1,3.9,7,3.9l25.7-0.2l0.1,23.6c-7.9-3.5-17.4-2.4-25.4,3.1c-1.3,0.9-2.4,2-3.3,3.3
		c-5.8,8.5-6.6,18.4-2.2,26.6c4.2,7.9,12.3,12.7,21.3,12.7c3.4,0,6.8-0.8,9.9-2.2l0.1,23.6l-22.1,0.1c0.8-2.5,1.3-5.1,1.3-7.8
		c-0.1-13.1-10.8-23.8-23.9-23.8c-5.3,0-10.7,1.8-15.6,5.2c-1.3,0.9-2.4,2-3.3,3.3c-5.1,7.5-6.4,15.9-3.7,23.4l-23.5,0.1l-0.2-25.8
		c0-4.5-3.7-8.1-8.1-8.1c-1.3,0-2.6,0.3-3.7,0.9c-2,1-4.1,1.6-6.5,1.6c-5.2,0-9.9-2.8-12.3-7.4c-2.6-4.9-2-10.9,1.6-16.3
		c0.2-0.3,0.4-0.5,0.7-0.7c5.4-3.8,11.3-4.4,16.2-1.9c3.1,1.6,7,0.9,9.4-1.5c1.5-1.5,2.4-3.6,2.4-5.8l-0.2-25.8l25.7-0.2
		C177.1,202.6,179.7,201.1,181.1,198.7z M171.3,192.5l-19.8,0.1l-0.1-18.6c2.5,0.9,5.1,1.3,7.9,1.3c5.7,0,11-2.1,15.2-5.6
		C169.8,177.1,168.6,185.2,171.3,192.5z M58.3,176.7c8.9-0.1,17-5,21.1-12.9c4.3-8.3,3.4-18.2-2.5-26.6c-0.9-1.3-2-2.4-3.3-3.3
		c-7.4-5-16-6.3-23.4-3.7l-0.1-23.5l25.8-0.1c2.9,0,5.5-1.5,7-4c1.4-2.4,1.5-5.3,0.2-7.8c-1-2-1.6-4.1-1.6-6.4c0-3.7,1.4-7.2,4-9.9
		c2.6-2.6,6.1-4.1,9.9-4.1c0,0,0,0,0,0c3.3,0,6.5,1.1,9.7,3.2c0.3,0.2,0.5,0.4,0.7,0.7c3.7,5.4,4.5,11.3,1.9,16.2
		c-1.3,2.5-1.2,5.5,0.3,7.9c1.5,2.4,4.1,3.9,7,3.9l25.8-0.2l0.2,25.7c0,4.5,3.7,8.1,8.1,8.1c1.2,0,2.5-0.3,3.7-0.9
		c4.9-2.5,10.7-1.9,16.1,1.8c0.3,0.2,0.5,0.4,0.7,0.7c3.7,5.4,4.4,11.3,1.8,16.3c-2.4,4.6-7.1,7.5-12.3,7.5c-2.2,0-4.2-0.5-6.1-1.4
		c-3-1.5-6.9-0.9-9.3,1.5c-1.5,1.6-2.4,3.6-2.4,5.8l0.1,23.5c-0.5,0.4-1,0.9-1.4,1.5v0h0l0,0c-0.2,0.3-0.3,0.5-0.5,0.8l-24.7,0.1
		c-1.1,0-2.1-0.6-2.7-1.5c-0.5-1-0.5-2.2,0.1-3.2c4.3-6.8,3.8-15.4-1.4-22.9c-0.5-0.7-1.2-1.4-2-1.9c-4.1-2.8-8.3-4.2-12.6-4.2
		c-5.1,0-9.8,2-13.4,5.6c-3.6,3.6-5.5,8.4-5.5,13.5c0,3.6,1.1,7.1,3,10.1c0.6,1,0.7,2.2,0.1,3.3c-0.5,1-1.5,1.6-2.7,1.6l-27.2,0.2
		l-0.1-22C53,176.3,55.6,176.7,58.3,176.7z M33.4,262.1c-5.2-0.1-9.9-2.8-12.4-7.4c-2.6-4.9-2-10.9,1.6-16.3
		c0.2-0.3,0.4-0.5,0.7-0.7c5.4-3.7,11.3-4.5,16.2-1.9c2.5,1.3,5.5,1.2,7.9-0.3c2.4-1.5,3.9-4.1,3.9-7l-0.1-21l26.8-0.2
		c4.8,0,9.2-2.7,11.4-6.8c2.3-4.2,2.1-9.4-0.5-13.5c-0.9-1.4-1.4-3-1.4-4.7c0-2.4,0.9-4.6,2.6-6.3c3.2-3.2,8.2-3.5,12.9-0.4
		c1.6,2.5,3.7,7,0.9,11.4c-2.6,4.1-2.7,9.2-0.4,13.4c2.3,4.2,6.7,6.7,11.5,6.7l23.6-0.1l0.1,18.7c-7.6-2.7-16.3-1.3-23.6,3.9
		c-1.2,0.9-2.4,2-3.2,3.3c-5.7,8.5-6.6,18.4-2.2,26.6c4.2,7.9,12.3,12.7,21.3,12.7c2.8,0,5.5-0.5,8.1-1.5l0.1,21.6
		c-0.2,0.2-0.4,0.5-0.6,0.7l-86.8,0.5l-0.2-25.8c0-2.9-1.5-5.5-4-7c-2.4-1.4-5.3-1.5-7.8-0.2C37.8,261.6,35.6,262.1,33.4,262.1z"/>
</g>
</svg>
