<?xml version="1.0" encoding="utf-8"?>
<!-- Generator: Adobe Illustrator 28.2.0, SVG Export Plug-In . SVG Version: 6.00 Build 0)  -->
<svg version="1.1" id="Layer_1" xmlns="http://www.w3.org/2000/svg" xmlns:xlink="http://www.w3.org/1999/xlink" x="0px" y="0px"
	 viewBox="0 0 324.5 324" style="enable-background:new 0 0 324.5 324;" xml:space="preserve">
<style type="text/css">
	.st0{fill:#FFFFFF;}
</style>
<g id="XMLID_69481_">
	<path id="XMLID_69487_" class="st0" d="M99.2,256.1c0,1.4,0.5,2.7,1.5,3.7c1,1,2.3,1.5,3.7,1.5l114.7,0c2.8,0,5.1-2.2,5.2-5
		c0-0.7,0.2-8.1-1.3-18.1l83.8,0c2.8,0,5.1-2.2,5.2-5c0.1-1.8,1.1-43.8-25.2-67.9c-1.9-1.7-4.7-1.8-6.7-0.3
		c-0.3,0.2-30.9,23.3-59.5,0c-2-1.6-4.8-1.5-6.7,0.1c-0.6,0.5-9,8-16.3,22.4c-1.7-0.7-3.7-0.5-5.2,0.6c-1.3,1-31.1,23.1-59.5,0
		c-1.4-1.1-3.2-1.4-4.8-0.9c-3.7-7.9-8.7-15.6-15.7-22c-1.9-1.7-4.7-1.8-6.7-0.3c-0.3,0.2-30.9,23.3-59.5,0c-2-1.6-4.8-1.5-6.7,0.1
		c-1.1,0.9-26.4,23.5-27.1,67.9c0,1.4,0.5,2.7,1.5,3.7c1,1,2.3,1.5,3.7,1.5l83.3,0C100,243.7,99.3,249.6,99.2,256.1z M217.9,175.9
		c27.1,18.9,54.8,5.8,64.7-0.2c15.4,16.5,18.4,41.6,18.9,52.1l-80.6,0c-2.6-10.6-7.3-22.5-15.4-32.6
		C209.9,185.8,214.8,179.3,217.9,175.9z M130.3,199c27.1,18.9,54.8,5.8,64.7-0.2c15.4,16.5,18.4,41.6,18.9,52.1l-104.1,0
		C111.7,223.1,124.4,205.6,130.3,199z M23.1,227.8c1.8-27.9,14.6-45.4,20.4-52c27.1,18.9,54.8,5.8,64.7-0.2
		c5.3,5.7,9.1,12.4,11.9,19.2c-5.2,6.4-12.3,17.3-16.8,32.9L23.1,227.8z"/>
	<path id="XMLID_69482_" class="st0" d="M26,111.7c0,27,22,49,49.1,49h0c13.1,0,25.4-5.1,34.7-14.4c1.3-1.3,2.5-2.6,3.6-4
		c3.6,23.5,23.9,41.6,48.4,41.6h0c13.1,0,25.4-5.1,34.7-14.4c7.7-7.7,12.5-17.6,13.9-28.2c9,11.8,23.1,19.5,39,19.5h0
		c13.1,0,25.4-5.1,34.7-14.4c9.3-9.3,14.4-21.6,14.4-34.7c0-27-22-49-49.1-49c-13.1,0-25.4,5.1-34.7,14.4
		c-7.7,7.7-12.5,17.6-13.9,28.2c-9-11.8-23.1-19.5-39-19.5c-13.1,0-25.4,5.1-34.7,14.4c-1.3,1.3-2.5,2.6-3.6,4
		c-3.6-23.5-23.9-41.6-48.4-41.6c-13.1,0-25.4,5.1-34.7,14.4C31.1,86.3,26,98.6,26,111.7z M222.1,84.4c7.3-7.3,17-11.3,27.4-11.4
		c21.3,0,38.7,17.4,38.7,38.7c0,10.3-4,20-11.3,27.4c-7.3,7.3-17,11.3-27.3,11.3h0c-21.3,0-38.7-17.3-38.7-38.7
		C210.7,101.4,214.8,91.7,222.1,84.4z M134.4,107.5c7.3-7.3,17-11.4,27.4-11.4c21.3,0,38.7,17.4,38.7,38.7c0,10.3-4,20-11.3,27.4
		c-7.3,7.3-17,11.3-27.3,11.3h0c-21.3,0-38.7-17.4-38.7-38.7C123.1,124.6,127.1,114.9,134.4,107.5z M75.1,73
		c21.3,0,38.7,17.4,38.7,38.7c0,10.3-4,20-11.4,27.4c-7.3,7.3-17,11.3-27.3,11.3h0c-21.3,0-38.7-17.3-38.7-38.7
		c0-10.3,4-20,11.3-27.4S64.8,73,75.1,73z"/>
</g>
</svg>
