<?xml version="1.0" encoding="utf-8"?>
<!-- Generator: Adobe Illustrator 28.2.0, SVG Export Plug-In . SVG Version: 6.00 Build 0)  -->
<svg version="1.1" id="Layer_1" xmlns="http://www.w3.org/2000/svg" xmlns:xlink="http://www.w3.org/1999/xlink" x="0px" y="0px"
	 viewBox="0 0 324.5 324" style="enable-background:new 0 0 324.5 324;" xml:space="preserve">
<style type="text/css">
	.st0{fill:#FFFFFF;}
</style>
<g id="XMLID_68909_">
	<path id="XMLID_68936_" class="st0" d="M224.5,138.3c-48.2,0-96.4,0-144.6,0c-5.8,0-5.8,9,0,9c48.2,0,96.4,0,144.6,0
		C230.3,147.3,230.3,138.3,224.5,138.3z"/>
	<path id="XMLID_68935_" class="st0" d="M224.5,179.3c-48.2,0-96.4,0-144.6,0c-5.8,0-5.8,9,0,9c48.2,0,96.4,0,144.6,0
		C230.3,188.3,230.3,179.3,224.5,179.3z"/>
	<path id="XMLID_68934_" class="st0" d="M224.5,220.3c-48.2,0-96.4,0-144.6,0c-5.8,0-5.8,9,0,9c48.2,0,96.4,0,144.6,0
		C230.3,229.3,230.3,220.3,224.5,220.3z"/>
	<path id="XMLID_68933_" class="st0" d="M224.5,261.4c-48.2,0-96.4,0-144.6,0c-5.8,0-5.8,9,0,9c48.2,0,96.4,0,144.6,0
		C230.3,270.4,230.3,261.4,224.5,261.4z"/>
	<path id="XMLID_68930_" class="st0" d="M95.1,101.8c0-6.4-5.2-11.5-11.5-11.5c-6.4,0-11.5,5.2-11.5,11.5c0,6.4,5.2,11.5,11.5,11.5
		C90,113.4,95.1,108.2,95.1,101.8z M76.9,101.8c0-3.7,3-6.8,6.7-6.8c3.7,0,6.7,3,6.7,6.8c0,3.7-3,6.7-6.7,6.7
		C79.9,108.6,76.9,105.5,76.9,101.8z"/>
	<path id="XMLID_68927_" class="st0" d="M117.9,113.4c6.4,0,11.5-5.2,11.5-11.5c0-6.4-5.2-11.5-11.5-11.5c-6.4,0-11.5,5.2-11.5,11.5
		C106.3,108.2,111.5,113.4,117.9,113.4z M117.9,95.1c3.7,0,6.8,3,6.8,6.8c0,3.7-3,6.7-6.8,6.7c-3.7,0-6.7-3-6.7-6.7
		C111.1,98.1,114.2,95.1,117.9,95.1z"/>
	<path id="XMLID_68924_" class="st0" d="M152.2,113.4c6.4,0,11.5-5.2,11.5-11.5c0-6.4-5.2-11.5-11.5-11.5c-6.4,0-11.5,5.2-11.5,11.5
		C140.6,108.2,145.8,113.4,152.2,113.4z M152.2,95.1c3.7,0,6.7,3,6.7,6.8c0,3.7-3,6.7-6.7,6.7c-3.7,0-6.7-3-6.7-6.7
		C145.4,98.1,148.5,95.1,152.2,95.1z"/>
	<path id="XMLID_68921_" class="st0" d="M186.5,113.4c6.4,0,11.5-5.2,11.5-11.5c0-6.4-5.2-11.5-11.5-11.5c-6.4,0-11.5,5.2-11.5,11.5
		C174.9,108.2,180.1,113.4,186.5,113.4z M186.5,95.1c3.7,0,6.8,3,6.8,6.8c0,3.7-3,6.7-6.8,6.7s-6.7-3-6.7-6.7
		C179.7,98.1,182.8,95.1,186.5,95.1z"/>
	<path id="XMLID_68918_" class="st0" d="M209.2,101.8c0,6.4,5.2,11.5,11.5,11.5c6.4,0,11.5-5.2,11.5-11.5c0-6.4-5.2-11.5-11.5-11.5
		C214.4,90.3,209.2,95.5,209.2,101.8z M220.8,95.1c3.7,0,6.7,3,6.7,6.8c0,3.7-3,6.7-6.7,6.7c-3.7,0-6.8-3-6.8-6.7
		C214,98.1,217.1,95.1,220.8,95.1z"/>
	<path id="XMLID_68913_" class="st0" d="M272.8,86.4c-2.1,0-4.8,0-7.8-0.2V58.9h-30.1c5.5-5,8.7-12.3,8.7-18.8
		c0.1-9.1-5.4-15.9-14.6-18.1c-6.8-1.7-12.8-0.7-17.3,2.8c-4.6,3.5-7.6,9.5-8.8,16.9c0-0.1-0.1-0.1-0.1-0.2
		c-3.7-6.1-2.5-12.5-0.5-20.1c1.1-4.3-1.8-7.5-5.1-8.3c-3.3-0.8-7.1,0.5-8.2,4.8c-2.6,10.3-4.4,23.7,5,34.9c2,2.3,4.3,4.4,6.8,6.2
		H45v252.3H265V100c1.9,0.1,3.8,0.2,5.8,0.2c0.7,0,1.4,0,2.1,0c4.4-0.1,6.8-3.7,6.7-7.1C279.5,89.6,277.2,86.4,272.8,86.4z
		 M257.8,66.1v19.3c-12-1.8-26.5-6.8-35.5-19.3H257.8z M257.8,304H52.2V66.1h154c8.9,18.2,27.7,30.1,51.7,33.2V304z M272.8,95.3
		c-29.2,0.6-52.5-11.2-62.4-31.4c-0.7-1.5-1.4-3.2-1.9-5.1l-0.3-1l-1-0.5c-3.7-1.9-7-4.5-9.6-7.6c-8-9.6-6.6-20.9-4.1-30.7
		c0.3-1.1,1.1-1.4,1.7-1.4c0.3,0,0.5,0.1,0.7,0.1c0.4,0.1,2.1,0.6,1.6,2.5c-2.1,8.4-3.5,16,1.1,23.7c1.1,1.9,2.7,3.8,4.5,5.4
		l3.9,3.6l0.1-5.3c0.2-8.6,2.9-15.6,7.4-19.1c3.4-2.6,7.9-3.3,13.2-1.9c9.6,2.4,11,9.4,11,13.4c-0.1,7.9-5.8,17.4-15.2,19.5
		c-2,0.4-4.1,0.6-6.3,0.4l-4.3-0.3l2,3.8c13.6,25.6,45,27.8,57.8,27.6c0,0,0,0,0.1,0c1.6,0,1.8,1.4,1.8,2
		C274.8,93.5,274.7,95.3,272.8,95.3z"/>
	<path id="XMLID_68910_" class="st0" d="M228,53.3c8-5.2,7.4-11.1,6.7-13.3c-1.3-4.6-6-8.2-11.3-8.4c-5.4-0.2-9.9,3.1-12.1,8.9
		c-1.4,3.7-1.5,8-0.4,12.7l0.3,1.3l1.3,0.4c2.1,0.7,4.3,1,6.3,1C222.2,56,225.4,55.1,228,53.3z M215.4,50.8
		c-0.6-3.2-0.4-6.1,0.5-8.5c1.4-3.9,4-6,7.4-5.8c3.1,0.1,6.1,2.3,6.9,4.9c0.7,2.7-1,5.5-4.8,8C222,51.6,218.3,51.5,215.4,50.8z"/>
</g>
</svg>
