<?xml version="1.0" encoding="utf-8"?>
<!-- Generator: Adobe Illustrator 28.2.0, SVG Export Plug-In . SVG Version: 6.00 Build 0)  -->
<svg version="1.1" id="Layer_1" xmlns="http://www.w3.org/2000/svg" xmlns:xlink="http://www.w3.org/1999/xlink" x="0px" y="0px"
	 viewBox="0 0 324.5 324" style="enable-background:new 0 0 324.5 324;" xml:space="preserve">
<style type="text/css">
	.st0{fill:#FFFFFF;}
</style>
<g id="XMLID_20491_">
	<path id="XMLID_20506_" class="st0" d="M269.6,70.5h-1.9h-48.2h-1.9v32.9h51.9V70.5z M255.2,74.9l-11.6,9.2l-11.6-9.2H255.2z
		 M265.3,98.9h-43.1V74.9h3l18.6,14.8l18.6-14.8h3V98.9z"/>
	<path id="XMLID_20502_" class="st0" d="M146.5,255.1c0.8,8.3,4.5,16.1,10.5,22c0.7,0.7,1.7,1.1,2.7,1.1c0.4,0,0.8-0.1,1.1-0.2
		c1.3-0.4,2.3-1.6,2.6-3c1-5.5,5.7-9.6,11.4-9.6h18.9c4.8,0,9,2.9,10.7,7.4c0.5,1.3,1.6,2.2,3,2.4c1.3,0.2,2.7-0.3,3.5-1.4
		c5.9-7.4,8.6-16.7,7.7-26.1c-1.7-17.1-15.3-30.7-32.3-32.3c-1.3-0.1-2.5-0.2-3.7-0.2c-10.2,0-20,4.3-26.8,11.9
		C148.7,234.8,145.4,244.7,146.5,255.1z M182.5,260c-7.6,0-13.7-6.1-13.7-13.7c0-7.5,6.2-13.7,13.7-13.7c7.6,0,13.7,6.2,13.7,13.7
		C196.2,253.8,190.1,260,182.5,260z M161.3,232.2c5.4-6,13.2-9.4,21.2-9.4c0.9,0,1.9,0.1,3,0.2c13.5,1.3,24.2,12.1,25.5,25.5
		c0.6,5.6-0.5,11.1-3,16c-3-3.4-7.2-5.7-11.8-6.3c2.7-3.2,4.4-7.3,4.4-11.8c0-10-8.1-18.1-18.1-18.1s-18.1,8.1-18.1,18.1
		c0,4.8,1.9,9.2,4.9,12.4c-4.5,1.3-8.4,4.3-10.9,8.3c-2.4-3.8-4-8.1-4.4-12.6C153.2,246.1,155.8,238.2,161.3,232.2z"/>
	<path id="XMLID_20498_" class="st0" d="M52,183c1.1,1.1,2.7,1.4,4.1,0.8c1.4-0.6,2.3-2,2.3-3.5V177c0-11.7,8.8-21.5,20.4-22.8
		c0,0,0.1,0,0.1,0c0.9-0.1,1.7-0.1,2.5-0.1h33c12.7,0,23,10.3,23,23v3.3c0,1.5,0.9,2.9,2.3,3.5c0.5,0.2,1,0.3,1.5,0.3
		c1,0,1.9-0.4,2.7-1.1c12.5-12.4,19.5-28.9,19.5-46.5c0-36-29.3-65.4-65.4-65.4c-36,0-65.4,29.3-65.4,65.4
		C32.5,154.1,39.4,170.6,52,183z M101.4,146.4h-7c-12.2-1.7-21.7-12.2-21.7-24.9c0-13.9,11.3-25.2,25.2-25.2
		c13.9,0,25.2,11.3,25.2,25.2C123,134.2,113.6,144.7,101.4,146.4z M97.9,78.8c31.9,0,57.8,25.9,57.8,57.8c0,12.5-4,24.5-11.4,34.4
		c-2.6-13-13.6-23-27-24.3c7.5-5.8,12.3-14.9,12.3-25.1c0-17.5-14.2-31.8-31.8-31.8c-17.5,0-31.8,14.3-31.8,31.8
		c0,10.2,4.8,19.3,12.3,25.1c-0.1,0-0.2,0-0.3,0c-0.2,0-0.3,0-0.5,0.1c-13.3,1.6-23.7,11.6-26.3,24.2c-7.4-9.9-11.4-21.8-11.4-34.4
		C40.1,104.7,66,78.8,97.9,78.8z"/>
	<path id="XMLID_20495_" class="st0" d="M243.7,134.4c27,0,49-22,49-49c0-27-22-49-49-49c-27,0-49,22-49,49
		C194.7,112.4,216.7,134.4,243.7,134.4z M243.7,44c22.8,0,41.4,18.6,41.4,41.4s-18.6,41.4-41.4,41.4c-22.8,0-41.4-18.6-41.4-41.4
		S220.9,44,243.7,44z"/>
	<path id="XMLID_20492_" class="st0" d="M21.3,136.5c0,42.2,34.4,76.6,76.6,76.6c11.3,0,22.7-2.6,32.9-7.5l15,16.7
		c-7.6,9.6-11.1,21.5-9.9,33.8c2.2,22.1,19.8,39.7,41.8,41.8c1.5,0.2,3.1,0.2,4.8,0.2c13.2,0,25.8-5.6,34.7-15.4
		c9-9.9,13.2-22.8,11.9-36.2c-2.2-22.1-19.8-39.7-41.8-41.8c-9.5-0.9-19.2,1.1-27.5,5.8l-13.3-14.8c17.7-14.5,28.1-36.3,28.1-59.2
		c0-6-0.7-12.1-2.2-18l18.2-6.4c10.1,20.1,30.6,32.9,53.2,32.9c32.9,0,59.6-26.7,59.6-59.6c0-32.9-26.7-59.6-59.6-59.6
		c-32.9,0-59.6,26.7-59.6,59.6c0,3.1,0.3,6.2,0.8,9.4l-19,6.7C152.8,76.2,126.4,60,97.9,60C55.6,60,21.3,94.3,21.3,136.5z
		 M97.9,67.5c26.8,0,51.4,15.8,62.7,40.3c0.8,1.8,2.9,2.6,4.7,2l25.2-8.9c1.8-0.6,2.8-2.5,2.4-4.4c-0.8-3.7-1.2-7.4-1.2-11.1
		c0-28.7,23.3-52,52-52c28.7,0,52,23.3,52,52c0,28.7-23.3,52-52,52c-20.8,0-39.5-12.4-47.8-31.5c-0.8-1.8-2.9-2.7-4.7-2.1l-24.7,8.7
		c-1.9,0.7-2.9,2.7-2.4,4.6c1.9,6.4,2.8,12.9,2.8,19.4c0,21.8-10.6,42.6-28.3,55.6c-0.9,0.6-1.4,1.6-1.5,2.7
		c-0.1,1.1,0.2,2.1,0.9,2.9l18.2,20.2c1.2,1.4,3.3,1.7,4.9,0.6c7.6-4.9,16.6-7.1,25.5-6.3c18.5,1.8,33.2,16.6,35,35
		c1.1,11.2-2.4,22-10,30.3c-7.4,8.2-18,12.9-29.1,12.9c-1.4,0-2.7-0.1-4-0.2c-18.5-1.8-33.2-16.6-35-35c-1.1-11.2,2.4-22,9.8-30.2
		c0.1-0.1,0.3-0.3,0.4-0.4c1.3-1.4,1.2-3.6,0-5l-19.1-21.3c-0.7-0.8-1.8-1.3-2.8-1.3c-0.6,0-1.2,0.1-1.8,0.4c-10,5.3-20.8,8-32.1,8
		c-38.1,0-69-31-69-69C28.9,98.5,59.8,67.5,97.9,67.5z"/>
</g>
</svg>
