<?xml version="1.0" encoding="utf-8"?>
<!-- Generator: Adobe Illustrator 28.2.0, SVG Export Plug-In . SVG Version: 6.00 Build 0)  -->
<svg version="1.1" id="Layer_1" xmlns="http://www.w3.org/2000/svg" xmlns:xlink="http://www.w3.org/1999/xlink" x="0px" y="0px"
	 viewBox="0 0 324.5 324" style="enable-background:new 0 0 324.5 324;" xml:space="preserve">
<style type="text/css">
	.st0{fill:#FFFFFF;}
</style>
<g id="XMLID_69573_">
	<path id="XMLID_69589_" class="st0" d="M106.3,270.9c-7.2-3.1-13-6.4-16.6-8.6c-1.9-1.2-3.5-2.2-4.4-2.9c-0.5-0.3-0.9-0.6-1.2-0.9
		l-0.2-0.1c-3.2-2.4-7.6-1.8-10,1.3c-2.4,3-2,7.6,1,10.1c27,22.4,51.7,35.1,75.4,38.6c4.9,0.7,9.7,1.1,14.5,1.1
		c6.8,0,13.7-0.7,20.7-2.2c9.3-1.9,18.8-5.2,28.9-9.9l5.7,8.2c1.5,2.2,4.1,3.4,6.8,3.1c2.7-0.3,4.9-2,5.9-4.5l15.7-39.9
		c0.8-2.1,0.6-4.5-0.5-6.4c-1.2-1.9-3.2-3.2-5.4-3.5l-42.8-4.8c-2.8-0.3-5.4,0.9-6.9,3.3c-1.5,2.3-1.5,5.3-0.1,7.6l4.5,7.5
		c-11.6,7-24,11.1-37.1,12.4C138.6,282.5,119,276.4,106.3,270.9z M206.3,273.5c2.1-1.4,2.8-4.2,1.5-6.4l-4.5-7.5l35.2,4l-13,33.1
		l-5.6-8c-1.3-1.9-3.9-2.6-6-1.6c-10.8,5.3-20.7,8.9-30.4,10.9c-10.8,2.3-21.3,2.6-31.9,1c-14.1-2.1-28.8-7.8-44.2-17.3
		c13.6,5.3,32.8,10.3,53.7,8.2C177.1,288.3,192.3,282.8,206.3,273.5z"/>
	<path id="XMLID_69586_" class="st0" d="M231.1,61.7c1.9,1.2,3.4,2.2,4.4,2.9c0.5,0.3,0.9,0.6,1.2,0.8l0.3,0.2
		c3.2,2.4,7.6,1.8,10-1.3c2.5-3.1,2-7.5-1-10.1c-27-22.4-51.7-35.1-75.4-38.6c-11.7-1.8-23.3-1.4-35.2,1.1
		c-9.3,1.9-18.8,5.2-28.9,9.9l-5.7-8.2c-1.5-2.2-4.1-3.4-6.8-3.1c-2.7,0.3-4.9,2-5.9,4.5L72.3,59.7c-0.8,2.1-0.6,4.5,0.5,6.4
		c1.2,1.9,3.2,3.2,5.4,3.5l42.8,4.8c0.3,0,0.6,0,0.8,0c2.4,0,4.7-1.2,6.1-3.3c1.5-2.3,1.5-5.3,0.1-7.6l-4.5-7.5
		c11.6-7,24-11.1,37.1-12.4c21.5-2.1,41.2,4,53.9,9.5C221.7,56.2,227.5,59.5,231.1,61.7z M159.7,34.1c-16.1,1.6-31.3,7.1-45.2,16.4
		c-2.1,1.4-2.8,4.2-1.4,6.4l4.5,7.5l-35.2-4l13-33.1l5.6,8c1.3,1.9,3.9,2.6,6,1.6c10.8-5.3,20.7-8.9,30.4-10.9
		c10.9-2.3,21.3-2.6,31.9-1c14.1,2.1,28.8,7.8,44.2,17.3C199.7,37,180.6,32.1,159.7,34.1z"/>
	<path id="XMLID_69583_" class="st0" d="M74.6,174.1L74.6,174.1c10.6,0,20.5-4.1,28-11.6c7.5-7.5,11.6-17.5,11.6-28
		c0-21.9-17.8-39.6-39.6-39.6c-10.6,0-20.5,4.1-28,11.6c-7.5,7.5-11.6,17.5-11.6,28C34.9,156.3,52.7,174.1,74.6,174.1z M53.9,113.9
		c5.5-5.5,12.8-8.6,20.6-8.6c16.1,0,29.1,13.1,29.2,29.1c0,7.8-3,15.1-8.5,20.6c-5.5,5.5-12.8,8.6-20.6,8.6h0
		c-16.1,0-29.1-13.1-29.2-29.1C45.4,126.7,48.4,119.4,53.9,113.9z"/>
	<path id="XMLID_69580_" class="st0" d="M124.8,229.7c0-1.4,0.9-34.9-20.2-54.2c-1.9-1.7-4.7-1.8-6.7-0.3c-0.2,0.2-23.5,17.7-45.2,0
		c-2-1.6-4.8-1.6-6.8,0.1c-0.9,0.8-21.1,18.8-21.6,54.1c0,1.4,0.5,2.8,1.5,3.8c1,1,2.3,1.6,3.7,1.6l0,0l89.9,0
		C122.4,234.8,124.7,232.5,124.8,229.7z M35.1,224.3c1.6-20,10.3-32.6,14.9-38c18.9,12.6,39.2,6.6,50.4-0.1
		c10.7,12.1,13.2,29.6,13.7,38.1L35.1,224.3z"/>
	<path id="XMLID_69577_" class="st0" d="M222,106.4c-7.5,7.5-11.6,17.5-11.6,28c0,21.8,17.8,39.6,39.6,39.6h0
		c10.6,0,20.5-4.1,28-11.6c7.5-7.5,11.6-17.5,11.6-28c0-21.9-17.8-39.6-39.6-39.6C239.4,94.8,229.5,98.9,222,106.4z M279.1,134.4
		c0,7.8-3,15.1-8.6,20.6c-5.5,5.5-12.8,8.6-20.6,8.6h0c-16.1,0-29.2-13.1-29.2-29.1c0-7.8,3-15.1,8.5-20.6
		c5.5-5.5,12.8-8.6,20.6-8.6C266.1,105.3,279.1,118.4,279.1,134.4z"/>
	<path id="XMLID_69574_" class="st0" d="M280,175.5c-1.9-1.7-4.7-1.8-6.7-0.3c-0.2,0.2-23.5,17.7-45.2,0c-2-1.6-4.8-1.6-6.8,0.1
		c-0.9,0.8-21.1,18.8-21.6,54.1c0,1.4,0.5,2.8,1.5,3.8c1,1,2.3,1.6,3.7,1.6h0l90,0c2.8,0,5.1-2.2,5.2-5.1
		C300.2,228.3,301.1,194.8,280,175.5z M210.5,224.3c1.6-20,10.3-32.6,14.9-38c18.9,12.6,39.2,6.6,50.4-0.1
		c10.7,12.1,13.2,29.6,13.7,38.1L210.5,224.3z"/>
</g>
</svg>
