<?xml version="1.0" encoding="utf-8"?>
<!-- Generator: Adobe Illustrator 28.2.0, SVG Export Plug-In . SVG Version: 6.00 Build 0)  -->
<svg version="1.1" id="Layer_1" xmlns="http://www.w3.org/2000/svg" xmlns:xlink="http://www.w3.org/1999/xlink" x="0px" y="0px"
	 viewBox="0 0 324.5 324" style="enable-background:new 0 0 324.5 324;" xml:space="preserve">
<style type="text/css">
	.st0{fill:#FFFFFF;}
</style>
<g id="XMLID_70229_">
	<path id="XMLID_70237_" class="st0" d="M87.8,141.2l-69.8,56.3c-1.4,1.1-2.2,2.9-2.2,4.7v65.3c0,3.3,2.7,6,6,6h69.8
		c3.3,0,6-2.7,6-6V145.9c0-2.3-1.3-4.4-3.4-5.4C92.1,139.5,89.6,139.8,87.8,141.2z M85.6,261.4H27.8V205l57.8-46.6V261.4z"/>
	<path id="XMLID_70234_" class="st0" d="M138,104.8l-18,11.3c-1.8,1.1-2.8,3-2.8,5.1v146.3c0,3.3,2.7,6,6,6h69.8c3.3,0,6-2.7,6-6
		V163.9c0-1.5-0.6-3-1.7-4.1l-51.8-54C143.5,103.7,140.4,103.3,138,104.8z M186.9,261.4h-57.8v-137l11.1-6.9l46.7,48.8V261.4z"/>
	<path id="XMLID_70231_" class="st0" d="M265.9,118l-45.7,45.7c-0.8,0.8-1.2,1.9-1.2,3v102.5c0,2.3,1.9,4.2,4.2,4.2h45.7
		c2.3,0,4.2-1.9,4.2-4.2V120.9c0-1.7-1-3.2-2.6-3.9C268.9,116.4,267.1,116.8,265.9,118z M264.7,265h-37.3v-96.6l37.3-37.3V265z"/>
	<path id="XMLID_70230_" class="st0" d="M305.3,51.9c-33,24.3-66,48.5-99,72.8c-19.2-20.1-38.4-40.2-57.6-60.3c-2-2.1-6-2.8-8.5-1.1
		c-42.6,29.6-85.2,59.3-127.9,89c-7.4,5.1-0.4,17.4,7.1,12.2c41.1-28.6,82.2-57.2,123.4-85.8c19.2,20.1,38.5,40.3,57.7,60.4
		c2,2.1,6.1,2.9,8.5,1.1c34.5-25.3,68.9-50.7,103.4-76C319.6,58.8,312.6,46.5,305.3,51.9z"/>
</g>
</svg>
