<?xml version="1.0" standalone="no"?>
<!DOCTYPE svg PUBLIC "-//W3C//DTD SVG 20010904//EN"
 "http://www.w3.org/TR/2001/REC-SVG-20010904/DTD/svg10.dtd">
<svg version="1.0" xmlns="http://www.w3.org/2000/svg"
 width="1556.000000pt" height="2001.000000pt" viewBox="0 0 1556.000000 2001.000000"
 preserveAspectRatio="xMidYMid meet">

<g transform="translate(0.000000,2001.000000) scale(0.100000,-0.100000)"
fill="#000000" stroke="none">
<path d="M7716 18418 c-3 -24 -8 -1620 -11 -3548 -3 -1928 -8 -4150 -12 -4937
l-6 -1433 40 0 40 0 6 1093 c6 851 22 7454 22 8627 l0 235 -37 3 c-36 3 -37 3
-42 -40z"/>
<path d="M4895 14920 c-366 -42 -700 -169 -951 -362 -336 -258 -599 -668 -715
-1112 -159 -610 -101 -1327 149 -1849 261 -545 676 -906 1202 -1046 503 -134
1137 -67 1614 171 124 61 278 166 269 182 -21 35 -237 372 -243 379 -4 5 -34
-11 -66 -36 -188 -142 -489 -262 -756 -301 -133 -20 -365 -20 -483 -1 -208 33
-419 120 -571 233 -312 232 -518 655 -580 1188 -23 195 -15 589 15 759 57 329
165 620 316 852 109 167 298 331 480 417 306 146 693 160 1052 40 198 -66 349
-150 459 -256 l62 -59 156 173 157 173 -63 58 c-198 184 -508 315 -898 383
-111 19 -482 27 -605 14z"/>
<path d="M8770 14738 c16 -73 36 -162 44 -198 14 -58 16 -289 16 -2027 l0
-1963 275 0 275 0 0 1020 0 1020 1050 0 1050 0 0 -1020 0 -1020 275 0 275 0 0
2160 0 2160 -275 0 -275 0 0 -935 0 -935 -1050 0 -1050 0 0 935 0 935 -319 0
-319 0 28 -132z"/>
<path d="M1598 5267 c-91 -26 -164 -89 -207 -177 -22 -47 -26 -68 -26 -145 0
-78 4 -97 28 -147 35 -71 101 -131 176 -158 111 -42 269 -21 345 46 l29 26
-21 20 -21 21 -39 -27 c-50 -34 -93 -46 -167 -46 -148 1 -265 118 -265 268 0
103 49 186 138 235 93 51 228 43 300 -18 l29 -24 22 23 21 22 -23 22 c-63 59
-216 88 -319 59z"/>
<path d="M2570 5267 c-91 -26 -172 -96 -212 -182 -32 -70 -33 -209 -1 -277 44
-97 149 -172 258 -187 126 -17 240 22 318 109 57 63 81 131 81 226 -1 178
-136 313 -322 321 -43 1 -97 -3 -122 -10z m221 -74 c96 -43 153 -133 154 -243
0 -75 -15 -118 -62 -177 -49 -61 -120 -93 -207 -93 -163 0 -276 111 -276 271
0 197 205 324 391 242z"/>
<path d="M3480 4951 l0 -331 30 0 30 0 0 258 c1 232 2 255 16 237 8 -11 67
-109 131 -218 83 -141 120 -197 132 -195 9 2 72 100 141 218 l125 215 3 -258
2 -257 35 0 35 0 -2 328 -3 327 -26 3 c-24 3 -36 -14 -165 -237 -76 -133 -143
-240 -147 -238 -5 1 -70 108 -145 237 -122 208 -141 235 -165 238 l-27 3 0
-330z"/>
<path d="M4670 4951 l0 -331 35 0 35 0 0 105 0 105 118 0 c185 0 255 30 299
128 58 124 -5 264 -136 303 -20 5 -107 13 -193 16 l-158 6 0 -332z m348 244
c130 -53 119 -248 -17 -294 -19 -6 -85 -11 -147 -11 l-114 0 0 166 0 167 118
-6 c76 -3 132 -11 160 -22z"/>
<path d="M5640 4951 l0 -331 215 0 215 0 0 30 0 30 -180 0 -180 0 -2 298 -3
297 -32 3 -33 3 0 -330z"/>
<path d="M6490 4951 l0 -331 35 0 35 0 -2 328 -3 327 -32 3 -33 3 0 -330z"/>
<path d="M7113 4950 l-151 -330 37 0 c36 0 37 2 65 68 52 122 31 112 231 112
200 0 178 11 231 -112 28 -66 30 -67 66 -68 l37 0 -33 73 c-18 39 -86 188
-151 330 l-118 257 -31 0 -32 0 -151 -330z m261 76 c42 -92 76 -170 76 -172 0
-2 -70 -4 -156 -4 -86 0 -154 4 -152 9 17 44 152 341 154 339 1 -2 37 -79 78
-172z"/>
<path d="M8040 4950 l0 -330 35 0 35 0 2 260 3 261 205 -260 c178 -226 209
-260 233 -261 l27 0 0 330 0 330 -30 0 -30 0 -2 -267 -3 -267 -212 267 c-177
222 -217 267 -238 267 l-25 0 0 -330z"/>
<path d="M9278 5267 c-91 -26 -164 -89 -207 -177 -22 -47 -26 -68 -26 -145 0
-78 4 -97 28 -147 35 -71 101 -131 176 -158 111 -42 269 -21 345 46 l29 26
-21 20 -21 21 -39 -27 c-50 -34 -93 -46 -167 -46 -148 1 -265 118 -265 268 0
103 49 186 138 235 93 51 228 43 300 -18 l29 -24 22 23 21 22 -23 22 c-63 59
-216 88 -319 59z"/>
<path d="M10070 4950 l0 -330 230 0 230 0 0 30 0 30 -195 0 -195 0 0 120 0
120 164 0 164 0 4 25 c3 13 3 27 0 30 -3 3 -79 5 -169 5 l-163 0 0 120 0 120
191 0 190 0 -3 28 -3 27 -222 3 -223 2 0 -330z"/>
<path d="M11540 4951 l0 -331 35 0 35 0 0 150 0 150 205 0 205 0 0 -150 0
-150 30 0 30 0 0 330 0 330 -30 0 -29 0 -3 -147 -3 -148 -202 -3 -202 -2 -3
147 -3 148 -32 3 -33 3 0 -330z"/>
<path d="M12594 5266 c-3 -8 -4 -115 -2 -238 4 -254 10 -282 86 -350 47 -43
103 -60 187 -59 101 1 169 32 214 97 44 63 51 113 51 346 l0 219 -32 -3 -33
-3 -5 -235 c-5 -251 -8 -267 -62 -317 -33 -31 -71 -43 -139 -43 -100 0 -163
45 -188 135 -6 23 -11 128 -11 253 l0 212 -30 0 c-17 0 -33 -6 -36 -14z"/>
<path d="M13640 4951 l0 -331 175 0 c212 0 260 9 316 59 38 34 42 42 47 94 2
31 2 67 -2 80 -7 30 -63 86 -93 93 -13 4 -23 7 -23 9 0 1 18 20 39 42 88 88
55 222 -65 262 -23 7 -112 15 -216 18 l-178 6 0 -332z m344 258 c91 -25 125
-113 70 -178 -34 -41 -77 -51 -221 -51 l-123 0 0 120 0 120 118 0 c64 0 135
-5 156 -11z m60 -303 c46 -19 66 -52 66 -106 0 -99 -43 -120 -250 -120 l-150
0 0 120 0 120 150 0 c106 0 160 -4 184 -14z"/>
<path d="M2936 1757 c-24 -17 -18 -67 9 -77 35 -13 65 6 65 40 0 24 -6 33 -26
40 -31 12 -27 13 -48 -3z"/>
<path d="M3346 1757 c-24 -17 -18 -67 9 -77 35 -13 65 6 65 40 0 24 -6 33 -26
40 -31 12 -27 13 -48 -3z"/>
<path d="M4426 1757 c-24 -17 -18 -67 9 -77 35 -13 65 6 65 40 0 24 -6 33 -26
40 -31 12 -27 13 -48 -3z"/>
<path d="M5686 1757 c-24 -17 -18 -67 9 -77 35 -13 65 6 65 40 0 24 -6 33 -26
40 -31 12 -27 13 -48 -3z"/>
<path d="M8686 1757 c-24 -17 -18 -67 9 -77 35 -13 65 6 65 40 0 24 -6 33 -26
40 -31 12 -27 13 -48 -3z"/>
<path d="M11576 1757 c-24 -17 -18 -67 9 -77 35 -13 65 6 65 40 0 24 -6 33
-26 40 -31 12 -27 13 -48 -3z"/>
<path d="M6140 1540 l0 -220 35 0 35 0 0 65 c0 36 4 65 8 65 5 0 30 -29 56
-65 46 -63 49 -65 93 -65 l45 0 -38 53 c-21 28 -49 67 -62 85 l-25 33 47 60
c66 84 67 91 20 87 -32 -3 -44 -11 -82 -58 -25 -30 -49 -56 -53 -58 -5 -2 -9
51 -9 117 l0 121 -35 0 -35 0 0 -220z"/>
<path d="M11380 1588 c0 -206 8 -244 54 -263 46 -19 76 -10 76 24 0 18 -7 29
-22 36 -22 10 -23 14 -26 193 l-2 182 -40 0 -40 0 0 -172z"/>
<path d="M2397 1734 c-4 -4 -7 -99 -7 -211 l0 -203 40 0 39 0 3 143 3 142 49
-142 50 -143 36 0 36 0 33 102 c19 57 42 121 52 143 l18 40 0 -142 1 -143 40
0 40 0 0 210 0 210 -54 0 -54 0 -30 -82 c-16 -46 -40 -116 -53 -155 -12 -40
-25 -70 -28 -67 -3 3 -28 71 -57 152 l-51 147 -49 3 c-27 2 -53 0 -57 -4z"/>
<path d="M7057 1733 c-4 -3 -7 -98 -7 -210 l0 -203 145 0 145 0 0 35 0 35
-100 0 -100 0 0 55 0 54 83 3 82 3 3 33 3 32 -85 0 -86 0 0 50 0 50 95 0 95 0
0 35 0 35 -133 0 c-74 0 -137 -3 -140 -7z"/>
<path d="M9765 1716 c-22 -13 -48 -38 -58 -54 -27 -47 -38 -124 -27 -184 21
-107 83 -160 190 -160 82 0 140 35 155 93 5 21 2 27 -20 37 -24 11 -29 9 -59
-23 -28 -29 -40 -35 -75 -35 -23 0 -51 5 -63 11 -27 15 -48 69 -48 127 0 98
34 142 110 142 33 0 48 -6 71 -29 29 -29 30 -30 59 -13 36 20 36 22 8 57 -47
59 -169 75 -243 31z"/>
<path d="M3133 1703 c-18 -3 -23 -11 -23 -34 0 -24 -4 -29 -25 -29 -22 0 -25
-4 -25 -35 0 -31 3 -35 25 -35 25 0 25 -1 25 -90 0 -130 21 -162 108 -162 53
0 74 17 61 50 -6 17 -16 22 -37 20 -47 -3 -52 6 -52 97 l0 84 43 3 c39 3 42 5
42 33 0 28 -3 30 -42 33 -42 3 -43 4 -43 38 0 35 -4 37 -57 27z"/>
<path d="M4213 1703 c-18 -3 -23 -11 -23 -34 0 -24 -4 -29 -25 -29 -22 0 -25
-4 -25 -35 0 -31 3 -35 25 -35 25 0 25 -1 25 -90 0 -130 21 -162 108 -162 53
0 74 17 61 50 -6 17 -16 22 -37 20 -47 -3 -52 6 -52 97 l0 84 43 3 c39 3 42 5
42 33 0 28 -3 30 -42 33 -42 3 -43 4 -43 38 0 35 -4 37 -57 27z"/>
<path d="M3698 1659 c-3 -20 -8 -22 -71 -23 -65 -1 -70 -3 -99 -35 -26 -29
-29 -39 -25 -73 3 -22 15 -51 28 -64 20 -21 20 -24 5 -30 -29 -11 -39 -42 -22
-69 20 -30 20 -35 1 -35 -23 0 -48 -46 -41 -75 11 -43 60 -65 144 -65 128 0
189 59 151 143 -14 32 -49 47 -104 47 -24 0 -56 5 -70 10 -40 15 -17 36 46 42
82 8 128 73 96 136 -13 26 -12 31 10 56 26 30 29 46 11 46 -7 0 -23 3 -35 6
-17 5 -22 1 -25 -17z m-30 -123 c3 -30 -1 -38 -21 -47 -38 -17 -67 3 -67 47 0
27 5 37 23 43 37 14 62 -2 65 -43z m-8 -222 c68 -14 42 -67 -34 -67 -49 0 -76
15 -76 43 0 28 42 37 110 24z"/>
<path d="M5148 1659 c-3 -20 -8 -22 -71 -23 -65 -1 -70 -3 -99 -35 -26 -29
-29 -39 -25 -73 3 -22 15 -51 28 -64 20 -21 20 -24 5 -30 -29 -11 -39 -42 -22
-69 20 -30 20 -35 1 -35 -23 0 -48 -46 -41 -75 11 -43 60 -65 144 -65 128 0
189 59 151 143 -14 32 -49 47 -104 47 -24 0 -56 5 -70 10 -40 15 -17 36 46 42
82 8 128 73 96 136 -13 26 -12 31 10 56 26 30 29 46 11 46 -7 0 -23 3 -35 6
-17 5 -22 1 -25 -17z m-30 -123 c3 -30 -1 -38 -21 -47 -38 -17 -67 3 -67 47 0
27 5 37 23 43 37 14 62 -2 65 -43z m-8 -222 c68 -14 42 -67 -34 -67 -49 0 -76
15 -76 43 0 28 42 37 110 24z"/>
<path d="M9408 1659 c-3 -20 -8 -22 -71 -23 -65 -1 -70 -3 -99 -35 -26 -29
-29 -39 -25 -73 3 -22 15 -51 28 -64 20 -21 20 -24 5 -30 -29 -11 -39 -42 -22
-69 20 -30 20 -35 1 -35 -23 0 -48 -46 -41 -75 11 -43 60 -65 144 -65 128 0
189 59 151 143 -14 32 -49 47 -104 47 -24 0 -56 5 -70 10 -40 15 -17 36 46 42
82 8 128 73 96 136 -13 26 -12 31 10 56 26 30 29 46 11 46 -7 0 -23 3 -35 6
-17 5 -22 1 -25 -17z m-30 -123 c3 -30 -1 -38 -21 -47 -38 -17 -67 3 -67 47 0
27 5 37 23 43 37 14 62 -2 65 -43z m-8 -222 c68 -14 42 -67 -34 -67 -49 0 -76
15 -76 43 0 28 42 37 110 24z"/>
<path d="M2930 1480 l0 -160 35 0 35 0 0 160 0 160 -35 0 -35 0 0 -160z"/>
<path d="M3340 1480 l0 -160 35 0 35 0 0 160 0 160 -35 0 -35 0 0 -160z"/>
<path d="M3874 1621 c-52 -24 -58 -34 -36 -61 l18 -22 43 23 c33 17 49 20 69
13 52 -19 31 -57 -38 -68 -85 -13 -125 -56 -113 -119 13 -66 115 -95 163 -47
l20 20 20 -20 c18 -18 79 -28 92 -15 10 10 -4 55 -17 55 -20 0 -25 24 -25 118
-1 53 -5 93 -13 103 -33 43 -114 51 -183 20z m122 -197 c-13 -50 -87 -67 -102
-22 -8 26 10 43 61 60 45 15 52 8 41 -38z"/>
<path d="M4420 1480 l0 -160 35 0 35 0 0 160 0 160 -35 0 -35 0 0 -160z"/>
<path d="M4590 1480 l0 -160 34 0 33 0 6 106 c6 119 18 144 72 144 50 0 55
-13 55 -137 l0 -113 40 0 40 0 0 114 c0 62 -5 127 -11 144 -22 65 -111 84
-168 36 l-31 -26 0 26 c0 23 -4 26 -35 26 l-35 0 0 -160z"/>
<path d="M5430 1480 l0 -160 34 0 33 0 6 101 c6 115 21 142 77 142 24 0 32 6
36 24 15 56 -32 72 -85 27 l-31 -26 0 26 c0 23 -4 26 -35 26 l-35 0 0 -160z"/>
<path d="M5680 1480 l0 -160 35 0 35 0 0 160 0 160 -35 0 -35 0 0 -160z"/>
<path d="M5878 1625 c-34 -19 -48 -44 -48 -85 0 -41 33 -70 102 -90 45 -14 53
-19 53 -40 0 -21 -5 -26 -34 -28 -23 -2 -44 4 -64 19 l-30 22 -19 -23 c-24
-29 -23 -36 7 -56 91 -60 225 -18 225 69 0 50 -24 75 -88 93 -70 20 -91 36
-72 58 16 20 47 20 82 2 24 -13 28 -12 47 8 l21 23 -20 18 c-28 25 -125 31
-162 10z"/>
<path d="M6488 1625 c-34 -19 -48 -44 -48 -85 0 -41 33 -70 102 -90 45 -14 53
-19 53 -40 0 -21 -5 -26 -34 -28 -23 -2 -44 4 -64 19 l-30 22 -19 -23 c-24
-29 -23 -36 7 -56 91 -60 225 -18 225 69 0 50 -24 75 -88 93 -70 20 -91 36
-72 58 16 20 47 20 82 2 24 -13 28 -12 47 8 l21 23 -20 18 c-28 25 -125 31
-162 10z"/>
<path d="M7410 1480 l0 -160 34 0 33 0 6 106 c6 119 18 144 72 144 50 0 55
-13 55 -137 l0 -113 40 0 40 0 0 114 c0 62 -5 127 -11 144 -22 65 -111 84
-168 36 l-31 -26 0 26 c0 23 -4 26 -35 26 l-35 0 0 -160z"/>
<path d="M7808 1625 c-34 -19 -48 -44 -48 -85 0 -41 33 -70 102 -90 45 -14 53
-19 53 -40 0 -21 -5 -26 -34 -28 -23 -2 -44 4 -64 19 l-30 22 -19 -23 c-24
-29 -23 -36 7 -56 91 -60 225 -18 225 69 0 50 -24 75 -88 93 -70 20 -91 36
-72 58 16 20 47 20 82 2 24 -13 28 -12 47 8 l21 23 -20 18 c-28 25 -125 31
-162 10z"/>
<path d="M8062 1505 c3 -129 4 -136 29 -160 34 -34 98 -37 140 -6 29 21 29 21
29 1 0 -17 6 -20 40 -20 l40 0 0 160 0 160 -40 0 -40 0 0 -105 c0 -99 -2 -107
-25 -130 -28 -29 -57 -32 -79 -9 -13 12 -16 39 -16 130 l0 114 -41 0 -41 0 4
-135z"/>
<path d="M8430 1480 l0 -160 34 0 33 0 6 101 c6 115 21 142 77 142 24 0 32 6
36 24 15 56 -32 72 -85 27 l-31 -26 0 26 c0 23 -4 26 -35 26 l-35 0 0 -160z"/>
<path d="M8680 1480 l0 -160 35 0 35 0 0 160 0 160 -35 0 -35 0 0 -160z"/>
<path d="M8850 1480 l0 -160 34 0 33 0 6 106 c6 119 18 144 72 144 50 0 55
-13 55 -137 l0 -113 40 0 40 0 0 114 c0 62 -5 127 -11 144 -22 65 -111 84
-168 36 l-31 -26 0 26 c0 23 -4 26 -35 26 l-35 0 0 -160z"/>
<path d="M10149 1617 c-44 -29 -69 -80 -69 -140 0 -114 82 -179 194 -155 105
22 149 153 85 257 -37 61 -146 81 -210 38z m133 -64 c39 -45 28 -146 -18 -163
-36 -14 -49 -12 -73 8 -38 30 -40 121 -5 156 21 21 77 20 96 -1z"/>
<path d="M10470 1480 l0 -160 35 0 35 0 0 78 c1 88 13 151 32 163 7 5 25 9 41
9 38 0 47 -29 47 -151 l0 -99 40 0 40 0 0 109 c0 122 8 141 60 141 42 0 50
-23 50 -144 l0 -106 40 0 40 0 0 103 c-1 122 -11 176 -41 200 -37 30 -116 19
-145 -21 -9 -12 -15 -11 -37 12 -36 36 -94 36 -136 0 l-31 -26 0 26 c0 23 -4
26 -35 26 l-35 0 0 -160z"/>
<path d="M11010 1415 l0 -225 35 0 35 0 0 80 c0 44 2 80 5 80 3 0 17 -7 31
-16 34 -23 99 -21 132 3 73 53 85 190 23 263 -36 43 -108 53 -151 21 -36 -26
-40 -26 -40 -1 0 16 -7 20 -35 20 l-35 0 0 -225z m194 140 c38 -39 26 -146
-20 -167 -30 -14 -81 6 -90 35 -12 38 -7 96 10 122 19 29 75 35 100 10z"/>
<path d="M11570 1480 l0 -160 35 0 35 0 0 160 0 160 -35 0 -35 0 0 -160z"/>
<path d="M11774 1621 c-52 -24 -58 -34 -36 -61 l18 -22 43 23 c33 17 49 20 69
13 52 -19 31 -57 -38 -68 -85 -13 -125 -56 -113 -119 13 -66 115 -95 163 -47
l20 20 20 -20 c18 -18 79 -28 92 -15 10 10 -4 55 -17 55 -20 0 -25 24 -25 118
-1 53 -5 93 -13 103 -33 43 -114 51 -183 20z m122 -197 c-13 -50 -87 -67 -102
-22 -8 26 10 43 61 60 45 15 52 8 41 -38z"/>
<path d="M12080 1480 l0 -160 34 0 33 0 6 106 c6 119 18 144 72 144 50 0 55
-13 55 -137 l0 -113 40 0 40 0 0 114 c0 62 -5 127 -11 144 -22 65 -111 84
-168 36 l-31 -26 0 26 c0 23 -4 26 -35 26 l-35 0 0 -160z"/>
<path d="M12499 1617 c-19 -12 -42 -38 -51 -57 -37 -73 -10 -187 52 -223 59
-35 173 -17 200 32 15 30 12 40 -15 53 -22 10 -28 8 -49 -15 -62 -67 -147 8
-122 107 14 56 79 75 121 36 l22 -20 26 20 c23 18 25 25 16 42 -26 49 -142 64
-200 25z"/>
<path d="M12819 1617 c-67 -44 -90 -148 -50 -225 30 -57 79 -79 173 -73 29 1
88 45 88 65 0 7 -11 19 -25 26 -22 12 -27 11 -38 -3 -6 -10 -29 -20 -49 -23
-30 -5 -41 -2 -62 19 -49 49 -38 57 79 57 l105 0 0 41 c0 57 -25 104 -65 123
-49 23 -115 20 -156 -7z m123 -54 c10 -9 18 -24 18 -35 0 -16 -8 -18 -65 -18
-36 0 -65 4 -65 9 0 4 9 20 21 35 24 30 63 34 91 9z"/>
<path d="M6740 1396 c-17 -21 -8 -59 17 -71 17 -9 19 -14 11 -30 -6 -11 -21
-29 -34 -40 -20 -17 -22 -22 -10 -38 13 -17 15 -16 45 9 18 14 38 39 46 55 18
34 20 100 3 117 -17 17 -63 15 -78 -2z"/>
</g>
</svg>
