<?xml version="1.0" encoding="utf-8"?>
<!-- Generator: Adobe Illustrator 28.2.0, SVG Export Plug-In . SVG Version: 6.00 Build 0)  -->
<svg version="1.1" id="Layer_1" xmlns="http://www.w3.org/2000/svg" xmlns:xlink="http://www.w3.org/1999/xlink" x="0px" y="0px"
	 viewBox="0 0 612 666.7" style="enable-background:new 0 0 612 666.7;" xml:space="preserve">
<style type="text/css">
	.st0{fill:#FFFFFF;}
</style>
<g>
	<path class="st0" d="M303.4,41.1c-0.1,1.1-0.4,75.6-0.5,165.5s-0.4,193.6-0.6,230.3l-0.3,66.8h1.9h1.9l0.3-51
		c0.3-39.7,1-347.7,1-402.4v-11l-1.7-0.1C303.7,39.1,303.6,39.1,303.4,41.1z"/>
	<path class="st0" d="M171.8,204.2c-17.1,2-32.6,7.9-44.4,16.9c-15.7,12-27.9,31.2-33.3,51.9c-7.4,28.5-4.7,61.9,6.9,86.2
		c12.2,25.4,31.5,42.3,56.1,48.8c23.5,6.2,53,3.1,75.3-8c5.8-2.8,13-7.7,12.5-8.5c-1-1.6-11.1-17.4-11.3-17.7
		c-0.2-0.2-1.6,0.5-3.1,1.7c-8.8,6.6-22.8,12.2-35.3,14c-6.2,0.9-17,0.9-22.5,0c-9.7-1.5-19.5-5.6-26.6-10.9
		c-14.6-10.8-24.2-30.6-27.1-55.4c-1.1-9.1-0.7-27.5,0.7-35.4c2.7-15.3,7.7-28.9,14.7-39.7c5.1-7.8,13.9-15.4,22.4-19.4
		c14.3-6.8,32.3-7.5,49.1-1.9c9.2,3.1,16.3,7,21.4,11.9l2.9,2.8l7.3-8.1l7.3-8.1l-2.9-2.7c-9.2-8.6-23.7-14.7-41.9-17.9
		C194.8,204,177.5,203.6,171.8,204.2z"/>
	<path class="st0" d="M352.5,212.7c0.7,3.4,1.7,7.6,2.1,9.2c0.7,2.7,0.7,13.5,0.7,94.5v91.6h12.8H381v-47.6v-47.6h49h49v47.6v47.6
		h12.8h12.8V307.3V206.6h-12.8h-12.8v43.6v43.6h-49h-49v-43.6v-43.6h-14.9h-14.9L352.5,212.7z"/>
	<g>
		<path class="st0" d="M18,597.2c-4.2,1.2-7.6,4.2-9.7,8.3c-1,2.2-1.2,3.2-1.2,6.8c0,3.6,0.2,4.5,1.3,6.9c1.6,3.3,4.7,6.1,8.2,7.4
			c5.2,2,12.5,1,16.1-2.1l1.4-1.2l-1-0.9l-1-1l-1.8,1.3c-2.3,1.6-4.3,2.1-7.8,2.1c-6.9,0-12.4-5.5-12.4-12.5c0-4.8,2.3-8.7,6.4-11
			c4.3-2.4,10.6-2,14,0.8l1.4,1.1l1-1.1l1-1l-1.1-1C30,597.2,22.8,595.9,18,597.2z"/>
		<path class="st0" d="M63.4,597.2c-4.2,1.2-8,4.5-9.9,8.5c-1.5,3.3-1.5,9.7,0,12.9c2.1,4.5,6.9,8,12,8.7c5.9,0.8,11.2-1,14.8-5.1
			c2.7-2.9,3.8-6.1,3.8-10.5c0-8.3-6.3-14.6-15-15C67,596.7,64.5,596.9,63.4,597.2z M73.7,600.7c4.5,2,7.1,6.2,7.2,11.3
			c0,3.5-0.7,5.5-2.9,8.3c-2.3,2.8-5.6,4.3-9.7,4.3c-7.6,0-12.9-5.2-12.9-12.6C55.4,602.8,65,596.8,73.7,600.7z"/>
		<path class="st0" d="M105.8,612v15.4h1.4h1.4v-12c0-10.8,0.1-11.9,0.7-11.1c0.4,0.5,3.1,5.1,6.1,10.2c3.9,6.6,5.6,9.2,6.2,9.1
			c0.4-0.1,3.4-4.7,6.6-10.2l5.8-10l0.1,12l0.1,12h1.6h1.6l-0.1-15.3l-0.1-15.3l-1.2-0.1c-1.1-0.1-1.7,0.7-7.7,11.1
			c-3.5,6.2-6.7,11.2-6.9,11.1c-0.2,0-3.3-5-6.8-11.1c-5.7-9.7-6.6-11-7.7-11.1l-1.3-0.1V612z"/>
		<path class="st0" d="M161.3,612v15.4h1.6h1.6v-4.9v-4.9h5.5c8.6,0,11.9-1.4,13.9-6c2.7-5.8-0.2-12.3-6.3-14.1
			c-0.9-0.2-5-0.6-9-0.7l-7.4-0.3V612z M177.5,600.6c6.1,2.5,5.6,11.6-0.8,13.7c-0.9,0.3-4,0.5-6.9,0.5h-5.3v-7.7v-7.8l5.5,0.3
			C173.6,599.7,176.2,600.1,177.5,600.6z"/>
		<path class="st0" d="M206.6,612v15.4h10h10V626v-1.4h-8.4h-8.4l-0.1-13.9l-0.1-13.9l-1.5-0.1l-1.5-0.1V612z"/>
		<path class="st0" d="M246.2,612v15.4h1.6h1.6l-0.1-15.3l-0.1-15.3l-1.5-0.1l-1.5-0.1V612z"/>
		<path class="st0" d="M275.3,612l-7,15.4h1.7c1.7,0,1.7-0.1,3-3.2c2.4-5.7,1.4-5.2,10.8-5.2c9.3,0,8.3-0.5,10.8,5.2
			c1.3,3.1,1.4,3.1,3.1,3.2h1.7l-1.5-3.4c-0.8-1.8-4-8.8-7-15.4l-5.5-12h-1.4h-1.5L275.3,612z M287.4,608.5c2,4.3,3.5,7.9,3.5,8
			c0,0.1-3.3,0.2-7.3,0.2s-7.2-0.2-7.1-0.4c0.8-2.1,7.1-15.9,7.2-15.8C283.8,600.5,285.5,604.1,287.4,608.5z"/>
		<path class="st0" d="M318.5,612v15.4h1.6h1.6l0.1-12.1l0.1-12.2l9.6,12.1c8.3,10.5,9.7,12.1,10.9,12.2h1.3V612v-15.4h-1.4h-1.4
			l-0.1,12.5l-0.1,12.5l-9.9-12.5c-8.3-10.4-10.1-12.5-11.1-12.5h-1.2V612z"/>
		<path class="st0" d="M376.2,597.2c-4.2,1.2-7.6,4.2-9.7,8.3c-1,2.2-1.2,3.2-1.2,6.8c0,3.6,0.2,4.5,1.3,6.9
			c1.6,3.3,4.7,6.1,8.2,7.4c5.2,2,12.5,1,16.1-2.1l1.4-1.2l-1-0.9l-1-1l-1.8,1.3c-2.3,1.6-4.3,2.1-7.8,2.1
			c-6.9,0-12.4-5.5-12.4-12.5c0-4.8,2.3-8.7,6.4-11c4.3-2.4,10.6-2,14,0.8l1.4,1.1l1-1.1l1-1l-1.1-1
			C388.2,597.2,381,595.9,376.2,597.2z"/>
		<path class="st0" d="M413.2,612v15.4h10.7h10.7V626v-1.4h-9.1h-9.1V619v-5.6h7.6h7.6l0.2-1.2c0.1-0.6,0.1-1.3,0-1.4
			c-0.1-0.1-3.7-0.2-7.9-0.2h-7.6V605v-5.6h8.9h8.9l-0.1-1.3l-0.1-1.3l-10.4-0.1l-10.4-0.1V612z"/>
		<path class="st0" d="M481.7,612v15.4h1.6h1.6v-7v-7h9.6h9.6v7v7h1.4h1.4V612v-15.4h-1.4h-1.4l-0.1,6.9l-0.1,6.9l-9.4,0.1l-9.4,0.1
			l-0.1-6.9l-0.1-6.9l-1.5-0.1l-1.5-0.1V612z"/>
		<path class="st0" d="M530.9,597.3c-0.1,0.4-0.2,5.4-0.1,11.1c0.2,11.8,0.5,13.2,4,16.3c2.2,2,4.8,2.8,8.7,2.8
			c4.7,0,7.9-1.5,10-4.5c2.1-2.9,2.4-5.3,2.4-16.1v-10.2l-1.5,0.1l-1.5,0.1l-0.2,11c-0.2,11.7-0.4,12.5-2.9,14.8
			c-1.5,1.4-3.3,2-6.5,2c-4.7,0-7.6-2.1-8.8-6.3c-0.3-1.1-0.5-6-0.5-11.8v-9.9h-1.4C531.8,596.6,531,596.9,530.9,597.3z"/>
		<path class="st0" d="M579.7,612v15.4h8.2c9.9,0,12.1-0.4,14.7-2.8c1.8-1.6,2-2,2.2-4.4c0.1-1.4,0.1-3.1-0.1-3.7
			c-0.3-1.4-2.9-4-4.3-4.3c-0.6-0.2-1.1-0.3-1.1-0.4c0,0,0.8-0.9,1.8-2c4.1-4.1,2.6-10.4-3-12.2c-1.1-0.3-5.2-0.7-10.1-0.8l-8.3-0.3
			V612z M595.7,599.9c4.2,1.2,5.8,5.3,3.3,8.3c-1.6,1.9-3.6,2.4-10.3,2.4h-5.7V605v-5.6h5.5C591.4,599.4,594.8,599.6,595.7,599.9z
			 M598.5,614c2.1,0.9,3.1,2.4,3.1,4.9c0,4.6-2,5.6-11.7,5.6h-7V619v-5.6h7C594.9,613.4,597.4,613.6,598.5,614z"/>
	</g>
</g>
</svg>
